<svg width="1280" height="94" viewBox="0 0 1280 94" fill="none" xmlns="http://www.w3.org/2000/svg">
<rect width="1440" height="93.4" transform="translate(-80 0.199219)" fill="white" fill-opacity="0.05"/>
<path d="M64 46.8994C64 40.2994 58.6 34.8994 52 34.8994C45.4 34.8994 40 40.2994 40 46.8994C40 52.8994 44.35 57.8494 50.05 58.7494V50.3494H47.05V46.8994H50.05V44.1994C50.05 41.1994 51.85 39.5494 54.55 39.5494C55.9 39.5494 57.25 39.8494 57.25 39.8494V42.8494H55.75C54.25 42.8494 53.8 43.7494 53.8 44.6494V46.8994H57.1L56.5 50.3494H53.65V58.8994C59.65 57.9994 64 52.8994 64 46.8994Z" fill="white"/>
<path d="M100 37.0681C103.181 37.0681 103.614 37.0681 104.916 37.0681C106.072 37.0681 106.651 37.3572 107.084 37.5018C107.663 37.791 108.096 37.9356 108.53 38.3693C108.964 38.803 109.253 39.2368 109.398 39.8151C109.542 40.2488 109.687 40.8271 109.831 41.9838C109.831 43.285 109.831 43.5741 109.831 46.8994C109.831 50.2247 109.831 50.5139 109.831 51.8151C109.831 52.9717 109.542 53.55 109.398 53.9838C109.108 54.5621 108.964 54.9958 108.53 55.4295C108.096 55.8633 107.663 56.1524 107.084 56.297C106.651 56.4416 106.072 56.5862 104.916 56.7307C103.614 56.7307 103.325 56.7307 100 56.7307C96.6747 56.7307 96.3855 56.7307 95.0843 56.7307C93.9277 56.7307 93.3494 56.4416 92.9157 56.297C92.3374 56.0079 91.9036 55.8633 91.4699 55.4295C91.0361 54.9958 90.747 54.5621 90.6024 53.9838C90.4578 53.55 90.3133 52.9717 90.1687 51.8151C90.1687 50.5139 90.1687 50.2247 90.1687 46.8994C90.1687 43.5741 90.1687 43.285 90.1687 41.9838C90.1687 40.8271 90.4578 40.2488 90.6024 39.8151C90.8916 39.2368 91.0361 38.803 91.4699 38.3693C91.9036 37.9356 92.3374 37.6464 92.9157 37.5018C93.3494 37.3572 93.9277 37.2127 95.0843 37.0681C96.3855 37.0681 96.8193 37.0681 100 37.0681ZM100 34.8994C96.6747 34.8994 96.3855 34.8994 95.0843 34.8994C93.7831 34.8994 92.9157 35.1886 92.1928 35.4777C91.4699 35.7669 90.747 36.2006 90.0241 36.9235C89.3012 37.6464 89.012 38.2247 88.5783 39.0922C88.2892 39.8151 88.1446 40.6825 88 41.9838C88 43.285 88 43.7187 88 46.8994C88 50.2247 88 50.5139 88 51.8151C88 53.1163 88.2892 53.9838 88.5783 54.7066C88.8675 55.4295 89.3012 56.1524 90.0241 56.8753C90.747 57.5982 91.3253 57.8874 92.1928 58.3211C92.9157 58.6103 93.7831 58.7548 95.0843 58.8994C96.3855 58.8994 96.8193 58.8994 100 58.8994C103.181 58.8994 103.614 58.8994 104.916 58.8994C106.217 58.8994 107.084 58.6103 107.807 58.3211C108.53 58.0319 109.253 57.5982 109.976 56.8753C110.699 56.1524 110.988 55.5741 111.422 54.7066C111.711 53.9838 111.855 53.1163 112 51.8151C112 50.5139 112 50.0801 112 46.8994C112 43.7187 112 43.285 112 41.9838C112 40.6825 111.711 39.8151 111.422 39.0922C111.133 38.3693 110.699 37.6464 109.976 36.9235C109.253 36.2006 108.675 35.9115 107.807 35.4777C107.084 35.1886 106.217 35.044 104.916 34.8994C103.614 34.8994 103.325 34.8994 100 34.8994Z" fill="white"/>
<path d="M100 40.6825C96.5301 40.6825 93.7831 43.4295 93.7831 46.8994C93.7831 50.3693 96.5301 53.1163 100 53.1163C103.47 53.1163 106.217 50.3693 106.217 46.8994C106.217 43.4295 103.47 40.6825 100 40.6825ZM100 50.9476C97.8313 50.9476 95.9518 49.2127 95.9518 46.8994C95.9518 44.7307 97.6867 42.8512 100 42.8512C102.169 42.8512 104.048 44.5862 104.048 46.8994C104.048 49.0681 102.169 50.9476 100 50.9476Z" fill="white"/>
<path d="M106.361 41.9838C107.16 41.9838 107.807 41.3365 107.807 40.538C107.807 39.7395 107.16 39.0922 106.361 39.0922C105.563 39.0922 104.916 39.7395 104.916 40.538C104.916 41.3365 105.563 41.9838 106.361 41.9838Z" fill="white"/>
<path d="M160 39.3994C159.1 39.8494 158.2 39.9994 157.15 40.1494C158.2 39.5494 158.95 38.6494 159.25 37.4494C158.35 38.0494 157.3 38.3494 156.1 38.6494C155.2 37.7494 153.85 37.1494 152.5 37.1494C149.35 37.1494 146.95 40.1494 147.7 43.1494C143.65 42.9994 140.05 41.0494 137.5 38.0494C136.15 40.2994 136.9 43.1494 139 44.6494C138.25 44.6494 137.5 44.3494 136.75 44.0494C136.75 46.2994 138.4 48.3994 140.65 48.9994C139.9 49.1494 139.15 49.2994 138.4 49.1494C139 51.0994 140.8 52.5994 143.05 52.5994C141.25 53.9494 138.55 54.6994 136 54.3994C138.25 55.7494 140.8 56.6494 143.5 56.6494C152.65 56.6494 157.75 48.9994 157.45 41.9494C158.5 41.3494 159.4 40.4494 160 39.3994Z" fill="white"/>
<path d="M196.074 34.8994C189.433 34.8994 184 40.4379 184 47.2071C184 52.284 187.018 56.5917 191.244 58.4379C191.244 57.5148 191.244 56.5917 191.395 55.6686C191.697 54.5917 192.905 48.8994 192.905 48.8994C192.905 48.8994 192.452 48.1302 192.452 46.8994C192.452 45.0533 193.508 43.6686 194.716 43.6686C195.772 43.6686 196.376 44.4379 196.376 45.5148C196.376 46.5917 195.621 48.284 195.319 49.8225C195.017 51.0533 195.923 52.1302 197.281 52.1302C199.545 52.1302 201.054 49.2071 201.054 45.5148C201.054 42.7456 199.243 40.7456 196.074 40.7456C192.452 40.7456 190.188 43.5148 190.188 46.5917C190.188 47.6686 190.49 48.4379 190.943 49.0533C191.093 49.361 191.244 49.361 191.093 49.6686C191.093 49.8225 190.943 50.4379 190.792 50.5917C190.641 50.8994 190.49 51.0533 190.188 50.8994C188.528 50.1302 187.773 48.284 187.773 46.1302C187.773 42.5917 190.641 38.4379 196.376 38.4379C201.054 38.4379 204.073 41.8225 204.073 45.5148C204.073 50.284 201.507 53.9763 197.583 53.9763C196.225 53.9763 195.017 53.2071 194.565 52.4379C194.565 52.4379 193.81 55.2071 193.659 55.8225C193.357 56.7456 192.905 57.6686 192.452 58.4379C193.508 58.7456 194.716 58.8994 195.923 58.8994C202.564 58.8994 207.997 53.361 207.997 46.5917C208.148 40.4379 202.715 34.8994 196.074 34.8994Z" fill="white"/>
<g opacity="0.8">
<path d="M904.13 44.0687C903.554 44.903 903.236 45.8802 903.236 46.8813C903.236 47.8824 903.542 48.8597 904.13 49.694C904.706 50.5282 905.539 51.1599 906.494 51.5293V42.2453C905.527 42.6028 904.706 43.2464 904.13 44.0687Z" fill="white"/>
<path d="M910.12 42.2453V51.5293C911.076 51.1599 911.909 50.5282 912.485 49.694C913.06 48.8597 913.379 47.8824 913.379 46.8813C913.379 45.8802 913.073 44.903 912.485 44.0687C911.897 43.2464 911.076 42.6028 910.12 42.2453Z" fill="white"/>
<path d="M912.387 38.3242H908.283C903.456 38.3242 899.475 41.8638 899.475 46.9766C899.475 51.6604 903.456 55.4979 908.283 55.4741H912.387C917.164 55.4979 921.525 51.6485 921.525 46.9766C921.525 41.8638 917.164 38.3242 912.387 38.3242ZM908.307 54.7352C903.897 54.7352 900.32 51.2194 900.308 46.8813C900.308 42.5432 903.885 39.0274 908.307 39.0274C912.73 39.0274 916.307 42.5432 916.307 46.8813C916.294 51.2194 912.717 54.7352 908.307 54.7352Z" fill="white"/>
</g>
<path d="M888.45 33.1992H932.55V31.1992H888.45V33.1992ZM934 34.6492V59.1492H936V34.6492H934ZM932.55 60.5992H888.45V62.5992H932.55V60.5992ZM887 59.1492V34.6492H885V59.1492H887ZM888.45 60.5992C887.649 60.5992 887 59.95 887 59.1492H885C885 61.0546 886.545 62.5992 888.45 62.5992V60.5992ZM934 59.1492C934 59.95 933.351 60.5992 932.55 60.5992V62.5992C934.455 62.5992 936 61.0546 936 59.1492H934ZM932.55 33.1992C933.351 33.1992 934 33.8484 934 34.6492H936C936 32.7438 934.455 31.1992 932.55 31.1992V33.1992ZM888.45 31.1992C886.545 31.1992 885 32.7438 885 34.6492H887C887 33.8484 887.649 33.1992 888.45 33.1992V31.1992Z" fill="white" fill-opacity="0.1"/>
<path opacity="0.8" d="M977.249 42.6816C977.233 42.7834 977.215 42.8874 977.194 42.9942C976.491 46.6036 974.086 47.8505 971.014 47.8505H969.45C969.075 47.8505 968.758 48.1233 968.699 48.4938L967.899 53.5723L967.672 55.0118C967.634 55.2551 967.821 55.4744 968.067 55.4744H970.841C971.169 55.4744 971.448 55.2358 971.5 54.9118L971.527 54.7708L972.05 51.4564L972.083 51.2746C972.134 50.9496 972.414 50.7109 972.742 50.7109H973.157C975.845 50.7109 977.949 49.6197 978.564 46.4621C978.821 45.143 978.688 44.0416 978.008 43.267C977.802 43.0334 977.547 42.8396 977.249 42.6816Z" fill="white"/>
<path opacity="0.6" d="M976.513 42.3886C976.406 42.3573 976.295 42.3289 976.182 42.3033C976.067 42.2783 975.95 42.2561 975.83 42.2368C975.408 42.1686 974.946 42.1362 974.451 42.1362H970.273C970.17 42.1362 970.072 42.1595 969.985 42.2016C969.792 42.2942 969.649 42.4767 969.614 42.7L968.725 48.3297L968.7 48.494C968.758 48.1234 969.075 47.8506 969.45 47.8506H971.014C974.086 47.8506 976.491 46.6032 977.194 42.9944C977.215 42.8875 977.233 42.7835 977.249 42.6818C977.071 42.5875 976.878 42.5068 976.671 42.438C976.62 42.421 976.567 42.4045 976.513 42.3886Z" fill="white"/>
<path opacity="0.7" d="M969.614 42.6997C969.648 42.4763 969.792 42.2939 969.984 42.2018C970.072 42.1598 970.17 42.1365 970.272 42.1365H974.451C974.946 42.1365 975.408 42.1689 975.829 42.2371C975.95 42.2564 976.067 42.2786 976.181 42.3036C976.295 42.3291 976.406 42.3576 976.513 42.3888C976.566 42.4047 976.619 42.4212 976.671 42.4377C976.878 42.5064 977.071 42.5877 977.249 42.6815C977.458 41.3477 977.247 40.4395 976.526 39.6171C975.731 38.7118 974.296 38.3242 972.46 38.3242H967.129C966.754 38.3242 966.434 38.597 966.376 38.9681L964.156 53.0425C964.112 53.3209 964.327 53.5722 964.607 53.5722H967.898L968.725 48.3294L969.614 42.6997Z" fill="white"/>
<path d="M949.45 33.1992H993.55V31.1992H949.45V33.1992ZM995 34.6492V59.1492H997V34.6492H995ZM993.55 60.5992H949.45V62.5992H993.55V60.5992ZM948 59.1492V34.6492H946V59.1492H948ZM949.45 60.5992C948.649 60.5992 948 59.95 948 59.1492H946C946 61.0546 947.545 62.5992 949.45 62.5992V60.5992ZM995 59.1492C995 59.95 994.351 60.5992 993.55 60.5992V62.5992C995.455 62.5992 997 61.0546 997 59.1492H995ZM993.55 33.1992C994.351 33.1992 995 33.8484 995 34.6492H997C997 32.7438 995.455 31.1992 993.55 31.1992V33.1992ZM949.45 31.1992C947.545 31.1992 946 32.7438 946 34.6492H948C948 33.8484 948.649 33.1992 949.45 33.1992V31.1992Z" fill="white" fill-opacity="0.1"/>
<g opacity="0.8">
<path fill-rule="evenodd" clip-rule="evenodd" d="M1023.4 42.3497C1023.03 42.773 1022.47 43.0904 1021.89 43.0434C1021.81 42.4908 1022.1 41.8913 1022.43 41.5268C1022.78 41.1036 1023.41 40.7979 1023.92 40.7744C1023.99 41.3622 1023.75 41.9265 1023.4 42.3497Z" fill="white"/>
<path fill-rule="evenodd" clip-rule="evenodd" d="M1023.91 43.1609C1023.41 43.1257 1022.94 43.302 1022.58 43.4431C1022.34 43.5371 1022.13 43.6194 1021.97 43.6194C1021.8 43.6194 1021.58 43.5371 1021.35 43.4431C1021.04 43.3255 1020.69 43.1844 1020.31 43.1962C1019.46 43.208 1018.67 43.6782 1018.23 44.4306C1017.33 45.9354 1017.99 48.1573 1018.86 49.38C1019.28 49.9913 1019.8 50.6497 1020.47 50.6261C1020.75 50.6144 1020.97 50.5321 1021.19 50.438C1021.45 50.3322 1021.71 50.2264 1022.13 50.2264C1022.52 50.2264 1022.77 50.3322 1023.02 50.438C1023.23 50.5321 1023.45 50.6261 1023.77 50.6144C1024.46 50.6026 1024.91 50.0031 1025.33 49.4035C1025.79 48.7569 1025.99 48.1221 1026.02 48.0163V48.0045C1026.02 48.0045 1026.01 48.0045 1026.01 47.9927C1025.86 47.9222 1024.69 47.4049 1024.68 46.0059C1024.67 44.8303 1025.61 44.2307 1025.76 44.1367C1025.77 44.1367 1025.77 44.1249 1025.77 44.1249C1025.17 43.2785 1024.24 43.1844 1023.91 43.1609Z" fill="white"/>
<path fill-rule="evenodd" clip-rule="evenodd" d="M1032.21 41.468H1028.72V50.5556H1030.16V47.4402H1032.16C1034 47.4402 1035.28 46.2176 1035.28 44.4424C1035.28 42.6672 1034.02 41.468 1032.21 41.468ZM1031.84 46.2646H1030.16V42.6554H1031.84C1033.09 42.6554 1033.81 43.3138 1033.81 44.4541C1033.81 45.5945 1033.09 46.2646 1031.84 46.2646Z" fill="white"/>
<path fill-rule="evenodd" clip-rule="evenodd" d="M1038.7 43.8781C1037.17 43.8781 1036.02 44.7363 1035.99 45.9119H1037.29C1037.41 45.3476 1037.94 44.9831 1038.66 44.9831C1039.55 44.9831 1040.05 45.3829 1040.05 46.1235V46.629L1038.24 46.7348C1036.55 46.8289 1035.65 47.499 1035.65 48.6746C1035.65 49.8502 1036.59 50.6379 1037.94 50.6379C1038.84 50.6379 1039.68 50.1912 1040.07 49.474H1040.1V50.5674H1041.44V46.0295C1041.43 44.7245 1040.36 43.8781 1038.7 43.8781ZM1040.05 48.0868C1040.05 48.9332 1039.31 49.5446 1038.33 49.5446C1037.56 49.5446 1037.07 49.1801 1037.07 48.6276C1037.07 48.0515 1037.55 47.7224 1038.44 47.6753L1040.05 47.5813V48.0868Z" fill="white"/>
<path fill-rule="evenodd" clip-rule="evenodd" d="M1045.88 50.9083C1045.31 52.4954 1044.64 53.0244 1043.23 53.0244C1043.12 53.0244 1042.76 53.0127 1042.68 52.9891V51.8958C1042.76 51.9076 1042.99 51.9193 1043.1 51.9193C1043.75 51.9193 1044.1 51.6607 1044.32 50.9788L1044.45 50.5791L1042 43.9604H1043.51L1045.22 49.3212H1045.24L1046.95 43.9604H1048.42L1045.88 50.9083Z" fill="white"/>
</g>
<path d="M1010.45 33.1992H1054.55V31.1992H1010.45V33.1992ZM1056 34.6492V59.1492H1058V34.6492H1056ZM1054.55 60.5992H1010.45V62.5992H1054.55V60.5992ZM1009 59.1492V34.6492H1007V59.1492H1009ZM1010.45 60.5992C1009.65 60.5992 1009 59.95 1009 59.1492H1007C1007 61.0546 1008.54 62.5992 1010.45 62.5992V60.5992ZM1056 59.1492C1056 59.95 1055.35 60.5992 1054.55 60.5992V62.5992C1056.46 62.5992 1058 61.0546 1058 59.1492H1056ZM1054.55 33.1992C1055.35 33.1992 1056 33.8484 1056 34.6492H1058C1058 32.7438 1056.46 31.1992 1054.55 31.1992V33.1992ZM1010.45 31.1992C1008.54 31.1992 1007 32.7438 1007 34.6492H1009C1009 33.8484 1009.65 33.1992 1010.45 33.1992V31.1992Z" fill="white" fill-opacity="0.1"/>
<g opacity="0.8">
<path fill-rule="evenodd" clip-rule="evenodd" d="M1087.25 42.2195L1084.59 48.6488L1083.56 43.1624C1083.48 42.6481 1083.05 42.2072 1082.45 42.2072H1078.19V42.5011C1079.07 42.6481 1079.88 42.942 1080.61 43.3094C1080.91 43.4563 1081.11 43.7625 1081.2 44.1176L1083.19 51.7226H1085.84L1089.82 42.2195H1087.25Z" fill="white"/>
<path fill-rule="evenodd" clip-rule="evenodd" d="M1090.85 42.2195L1088.79 51.7226H1091.29L1093.36 42.2195H1090.85Z" fill="white"/>
<path fill-rule="evenodd" clip-rule="evenodd" d="M1096.59 44.8524C1096.66 44.3381 1097.1 44.0442 1097.62 44.0442C1098.43 43.9707 1099.32 44.1176 1100.05 44.485L1100.49 42.4399C1099.75 42.146 1098.95 41.999 1098.21 41.999C1095.78 41.999 1094.01 43.3094 1094.01 45.1463C1094.01 46.5302 1095.26 47.2649 1096.14 47.7058C1097.1 48.1467 1097.47 48.4406 1097.39 48.8692C1097.39 49.5305 1096.65 49.8244 1095.92 49.8244C1095.04 49.8244 1094.15 49.604 1093.35 49.2366L1092.9 51.2817C1093.79 51.6491 1094.75 51.7961 1095.63 51.7961C1098.35 51.8696 1100.05 50.5592 1100.05 48.5753C1100.06 46.0893 1096.59 45.9423 1096.59 44.8524Z" fill="white"/>
<path fill-rule="evenodd" clip-rule="evenodd" d="M1106.82 42.2195H1104.69C1104.24 42.2195 1103.81 42.5134 1103.66 42.9542L1099.98 51.7226H1102.56L1103.07 50.3388H1106.23L1106.53 51.7226H1108.81L1106.82 42.2195ZM1103.73 48.3549L1105.06 44.7789L1105.8 48.3549H1103.73Z" fill="white"/>
</g>
<path d="M1071.45 33.1992H1115.55V31.1992H1071.45V33.1992ZM1117 34.6492V59.1492H1119V34.6492H1117ZM1115.55 60.5992H1071.45V62.5992H1115.55V60.5992ZM1070 59.1492V34.6492H1068V59.1492H1070ZM1071.45 60.5992C1070.65 60.5992 1070 59.95 1070 59.1492H1068C1068 61.0546 1069.54 62.5992 1071.45 62.5992V60.5992ZM1117 59.1492C1117 59.95 1116.35 60.5992 1115.55 60.5992V62.5992C1117.46 62.5992 1119 61.0546 1119 59.1492H1117ZM1115.55 33.1992C1116.35 33.1992 1117 33.8484 1117 34.6492H1119C1119 32.7438 1117.46 31.1992 1115.55 31.1992V33.1992ZM1071.45 31.1992C1069.54 31.1992 1068 32.7438 1068 34.6492H1070C1070 33.8484 1070.65 33.1992 1071.45 33.1992V31.1992Z" fill="white" fill-opacity="0.1"/>
<g opacity="0.8">
<path fill-rule="evenodd" clip-rule="evenodd" d="M1171.88 42.6118H1166.48L1165.22 43.9593L1164.04 42.6118H1152.42L1151.43 44.9026L1150.4 42.6118H1145.74V43.6531L1145.23 42.6118H1141.25L1137.35 51.4931H1142.02L1142.59 50.0721H1143.92L1144.49 51.4931H1149.62V50.4028L1150.08 51.4808H1152.74L1153.19 50.3783V51.4808H1163.87L1165.17 50.0966L1166.38 51.4808L1171.87 51.4931L1167.98 47.0708L1171.88 42.6118ZM1155.81 50.2436H1154.3L1154.29 45.2578L1152.1 50.2436H1150.75L1148.55 45.2578V50.2436H1145.44L1144.85 48.8103H1141.66L1141.07 50.2436H1139.42L1142.15 43.8736H1144.43L1147.02 49.8883V43.8736H1149.5L1151.5 48.1856L1153.34 43.8736H1155.81V50.2436ZM1169.02 50.2436H1167.06L1165.18 48.1243L1163.23 50.2313H1157.2V43.8613H1163.33L1165.21 45.9438L1167.14 43.8613H1169.02L1166.16 47.0586L1169.02 50.2436Z" fill="white"/>
<path fill-rule="evenodd" clip-rule="evenodd" d="M1142.21 47.4996H1144.3L1143.25 44.9516L1142.21 47.4996Z" fill="white"/>
<path fill-rule="evenodd" clip-rule="evenodd" d="M1158.71 45.1843V46.3481H1162.06V47.6466H1158.71V48.9206H1162.46L1164.2 47.0463L1162.54 45.1843H1158.71Z" fill="white"/>
</g>
<path d="M1132.45 33.1992H1176.55V31.1992H1132.45V33.1992ZM1178 34.6492V59.1492H1180V34.6492H1178ZM1176.55 60.5992H1132.45V62.5992H1176.55V60.5992ZM1131 59.1492V34.6492H1129V59.1492H1131ZM1132.45 60.5992C1131.65 60.5992 1131 59.95 1131 59.1492H1129C1129 61.0546 1130.54 62.5992 1132.45 62.5992V60.5992ZM1178 59.1492C1178 59.95 1177.35 60.5992 1176.55 60.5992V62.5992C1178.46 62.5992 1180 61.0546 1180 59.1492H1178ZM1176.55 33.1992C1177.35 33.1992 1178 33.8484 1178 34.6492H1180C1180 32.7438 1178.46 31.1992 1176.55 31.1992V33.1992ZM1132.45 31.1992C1130.54 31.1992 1129 32.7438 1129 34.6492H1131C1131 33.8484 1131.65 33.1992 1132.45 33.1992V31.1992Z" fill="white" fill-opacity="0.1"/>
<circle opacity="0.8" cx="1220.4" cy="46.8993" r="7.35" fill="white"/>
<circle opacity="0.8" cx="1210.6" cy="46.8993" r="7.35" fill="white"/>
<path d="M1193.45 33.1992H1237.55V31.1992H1193.45V33.1992ZM1239 34.6492V59.1492H1241V34.6492H1239ZM1237.55 60.5992H1193.45V62.5992H1237.55V60.5992ZM1192 59.1492V34.6492H1190V59.1492H1192ZM1193.45 60.5992C1192.65 60.5992 1192 59.95 1192 59.1492H1190C1190 61.0546 1191.54 62.5992 1193.45 62.5992V60.5992ZM1239 59.1492C1239 59.95 1238.35 60.5992 1237.55 60.5992V62.5992C1239.46 62.5992 1241 61.0546 1241 59.1492H1239ZM1237.55 33.1992C1238.35 33.1992 1239 33.8484 1239 34.6492H1241C1241 32.7438 1239.46 31.1992 1237.55 31.1992V33.1992ZM1193.45 31.1992C1191.54 31.1992 1190 32.7438 1190 34.6492H1192C1192 33.8484 1192.65 33.1992 1193.45 33.1992V31.1992Z" fill="white" fill-opacity="0.1"/>
</svg>
