<svg width="49" height="30" viewBox="0 0 49 30" fill="none" xmlns="http://www.w3.org/2000/svg">
<g opacity="0.8">
<path fill-rule="evenodd" clip-rule="evenodd" d="M15.3959 10.3497C15.0311 10.773 14.4651 11.0904 13.8866 11.0434C13.8111 10.4908 14.1004 9.89126 14.4274 9.52681C14.7796 9.10359 15.4084 8.79793 15.9241 8.77441C15.987 9.36223 15.748 9.92653 15.3959 10.3497Z" fill="white"/>
<path fill-rule="evenodd" clip-rule="evenodd" d="M15.9115 11.1609C15.4084 11.1257 14.9431 11.302 14.5783 11.4431C14.3394 11.5371 14.1255 11.6194 13.9746 11.6194C13.7985 11.6194 13.5847 11.5371 13.3458 11.4431C13.0439 11.3255 12.6917 11.1844 12.3144 11.1962C11.4591 11.208 10.6668 11.6782 10.2266 12.4306C9.33358 13.9354 9.9876 16.1573 10.8554 17.38C11.2831 17.9913 11.7987 18.6497 12.4653 18.6261C12.7546 18.6144 12.9684 18.5321 13.1948 18.438C13.4464 18.3322 13.7105 18.2264 14.1255 18.2264C14.5154 18.2264 14.767 18.3322 15.0185 18.438C15.2324 18.5321 15.4462 18.6261 15.7732 18.6144C16.4649 18.6026 16.9051 18.0031 17.3328 17.4035C17.7856 16.7569 17.9868 16.1221 18.0245 16.0163V16.0045C18.0245 16.0045 18.012 16.0045 18.012 15.9927C17.861 15.9222 16.6913 15.4049 16.6788 14.0059C16.6662 12.8303 17.6095 12.2307 17.7604 12.1367C17.773 12.1367 17.773 12.1249 17.773 12.1249C17.1693 11.2785 16.2385 11.1844 15.9115 11.1609Z" fill="white"/>
<path fill-rule="evenodd" clip-rule="evenodd" d="M24.2126 9.46803H20.7161V18.5556H22.1625V15.4402H24.1623C25.9986 15.4402 27.2815 14.2176 27.2815 12.4424C27.2815 10.6672 26.0237 9.46803 24.2126 9.46803ZM23.8353 14.2646H22.1625V10.6554H23.8353C25.093 10.6554 25.8099 11.3138 25.8099 12.4541C25.8099 13.5945 25.093 14.2646 23.8353 14.2646Z" fill="white"/>
<path fill-rule="evenodd" clip-rule="evenodd" d="M30.7025 11.8781C29.1681 11.8781 28.0235 12.7363 27.9858 13.9119H29.2938C29.407 13.3476 29.9353 12.9831 30.6648 12.9831C31.5452 12.9831 32.0483 13.3829 32.0483 14.1235V14.629L30.2371 14.7348C28.5518 14.8289 27.6462 15.499 27.6462 16.6746C27.6462 17.8502 28.5895 18.6379 29.9353 18.6379C30.8409 18.6379 31.6835 18.1912 32.0734 17.474H32.0986V18.5674H33.4444V14.0295C33.4318 12.7245 32.3627 11.8781 30.7025 11.8781ZM32.0483 16.0868C32.0483 16.9332 31.3062 17.5446 30.3252 17.5446C29.558 17.5446 29.0674 17.1801 29.0674 16.6276C29.0674 16.0515 29.5454 15.7224 30.4384 15.6753L32.0483 15.5813V16.0868Z" fill="white"/>
<path fill-rule="evenodd" clip-rule="evenodd" d="M37.8842 18.9083C37.3056 20.4954 36.639 21.0244 35.2304 21.0244C35.1172 21.0244 34.765 21.0127 34.677 20.9891V19.8958C34.765 19.9076 34.9914 19.9193 35.1046 19.9193C35.746 19.9193 36.0982 19.6607 36.3246 18.9788L36.4504 18.5791L33.9978 11.9604H35.5071L37.2176 17.3212H37.2427L38.9533 11.9604H40.4248L37.8842 18.9083Z" fill="white"/>
</g>
<path d="M2.45 1.19922H46.55V-0.800781H2.45V1.19922ZM48 2.64922V27.1492H50V2.64922H48ZM46.55 28.5992H2.45V30.5992H46.55V28.5992ZM1 27.1492V2.64922H-1V27.1492H1ZM2.45 28.5992C1.64919 28.5992 1 27.95 1 27.1492H-1C-1 29.0546 0.544619 30.5992 2.45 30.5992V28.5992ZM48 27.1492C48 27.95 47.3508 28.5992 46.55 28.5992V30.5992C48.4554 30.5992 50 29.0546 50 27.1492H48ZM46.55 1.19922C47.3508 1.19922 48 1.84841 48 2.64922H50C50 0.743836 48.4554 -0.800781 46.55 -0.800781V1.19922ZM2.45 -0.800781C0.544618 -0.800781 -1 0.743836 -1 2.64922H1C1 1.84841 1.64919 1.19922 2.45 1.19922V-0.800781Z" fill="white" fill-opacity="0.1"/>
</svg>
