<svg width="24" height="25" viewBox="0 0 24 25" fill="none" xmlns="http://www.w3.org/2000/svg">
<path d="M12 3.06809C15.1807 3.06809 15.6145 3.06809 16.9157 3.06809C18.0723 3.06809 18.6506 3.35725 19.0843 3.50182C19.6627 3.79098 20.0964 3.93556 20.5301 4.36929C20.9639 4.80303 21.253 5.23676 21.3976 5.81508C21.5422 6.24881 21.6867 6.82713 21.8313 7.98375C21.8313 9.28496 21.8313 9.57411 21.8313 12.8994C21.8313 16.2247 21.8313 16.5139 21.8313 17.8151C21.8313 18.9717 21.5422 19.55 21.3976 19.9838C21.1084 20.5621 20.9639 20.9958 20.5301 21.4295C20.0964 21.8633 19.6627 22.1524 19.0843 22.297C18.6506 22.4416 18.0723 22.5862 16.9157 22.7307C15.6145 22.7307 15.3253 22.7307 12 22.7307C8.6747 22.7307 8.38554 22.7307 7.08434 22.7307C5.92771 22.7307 5.3494 22.4416 4.91566 22.297C4.33735 22.0079 3.90362 21.8633 3.46988 21.4295C3.03615 20.9958 2.74699 20.5621 2.60241 19.9838C2.45783 19.55 2.31325 18.9717 2.16867 17.8151C2.16867 16.5139 2.16867 16.2247 2.16867 12.8994C2.16867 9.57411 2.16867 9.28496 2.16867 7.98375C2.16867 6.82713 2.45783 6.24881 2.60241 5.81508C2.89157 5.23676 3.03615 4.80303 3.46988 4.36929C3.90362 3.93556 4.33735 3.6464 4.91566 3.50182C5.3494 3.35725 5.92771 3.21267 7.08434 3.06809C8.38554 3.06809 8.81928 3.06809 12 3.06809ZM12 0.899414C8.6747 0.899414 8.38554 0.899414 7.08434 0.899414C5.78313 0.899414 4.91566 1.18857 4.19277 1.47773C3.46988 1.76688 2.74699 2.20062 2.0241 2.92351C1.30121 3.6464 1.01205 4.22472 0.578314 5.09219C0.289157 5.81508 0.144578 6.68255 0 7.98375C0 9.28496 0 9.71869 0 12.8994C0 16.2247 0 16.5139 0 17.8151C0 19.1163 0.289157 19.9838 0.578314 20.7066C0.867471 21.4295 1.30121 22.1524 2.0241 22.8753C2.74699 23.5982 3.3253 23.8874 4.19277 24.3211C4.91566 24.6103 5.78313 24.7548 7.08434 24.8994C8.38554 24.8994 8.81928 24.8994 12 24.8994C15.1807 24.8994 15.6145 24.8994 16.9157 24.8994C18.2169 24.8994 19.0843 24.6103 19.8072 24.3211C20.5301 24.0319 21.253 23.5982 21.9759 22.8753C22.6988 22.1524 22.988 21.5741 23.4217 20.7066C23.7108 19.9838 23.8554 19.1163 24 17.8151C24 16.5139 24 16.0801 24 12.8994C24 9.71869 24 9.28496 24 7.98375C24 6.68255 23.7108 5.81508 23.4217 5.09219C23.1325 4.36929 22.6988 3.6464 21.9759 2.92351C21.253 2.20062 20.6747 1.91146 19.8072 1.47773C19.0843 1.18857 18.2169 1.04399 16.9157 0.899414C15.6145 0.899414 15.3253 0.899414 12 0.899414Z" fill="white"/>
<path d="M12 6.68255C8.53012 6.68255 5.78313 9.42954 5.78313 12.8994C5.78313 16.3693 8.53012 19.1163 12 19.1163C15.4699 19.1163 18.2169 16.3693 18.2169 12.8994C18.2169 9.42954 15.4699 6.68255 12 6.68255ZM12 16.9476C9.83133 16.9476 7.95181 15.2127 7.95181 12.8994C7.95181 10.7307 9.68675 8.85122 12 8.85122C14.1687 8.85122 16.0482 10.5862 16.0482 12.8994C16.0482 15.0681 14.1687 16.9476 12 16.9476Z" fill="white"/>
<path d="M18.3614 7.98375C19.1599 7.98375 19.8072 7.33645 19.8072 6.53797C19.8072 5.73949 19.1599 5.09219 18.3614 5.09219C17.563 5.09219 16.9157 5.73949 16.9157 6.53797C16.9157 7.33645 17.563 7.98375 18.3614 7.98375Z" fill="white"/>
</svg>
