<svg width="49" height="30" viewBox="0 0 49 30" fill="none" xmlns="http://www.w3.org/2000/svg">
<circle opacity="0.8" cx="29.3998" cy="14.8993" r="7.35" fill="white"/>
<circle opacity="0.8" cx="19.6" cy="14.8993" r="7.35" fill="white"/>
<path d="M2.45 1.19922H46.55V-0.800781H2.45V1.19922ZM48 2.64922V27.1492H50V2.64922H48ZM46.55 28.5992H2.45V30.5992H46.55V28.5992ZM1 27.1492V2.64922H-1V27.1492H1ZM2.45 28.5992C1.64919 28.5992 1 27.95 1 27.1492H-1C-1 29.0546 0.544619 30.5992 2.45 30.5992V28.5992ZM48 27.1492C48 27.95 47.3508 28.5992 46.55 28.5992V30.5992C48.4554 30.5992 50 29.0546 50 27.1492H48ZM46.55 1.19922C47.3508 1.19922 48 1.84841 48 2.64922H50C50 0.743836 48.4554 -0.800781 46.55 -0.800781V1.19922ZM2.45 -0.800781C0.544618 -0.800781 -1 0.743836 -1 2.64922H1C1 1.84841 1.64919 1.19922 2.45 1.19922V-0.800781Z" fill="white" fill-opacity="0.1"/>
</svg>
