<svg width="49" height="30" viewBox="0 0 49 30" fill="none" xmlns="http://www.w3.org/2000/svg">
<g opacity="0.8">
<path d="M18.1302 12.0687C17.5544 12.903 17.2359 13.8802 17.2359 14.8813C17.2359 15.8824 17.5422 16.8597 18.1302 17.694C18.7059 18.5282 19.5389 19.1599 20.4944 19.5293V10.2453C19.5267 10.6028 18.7059 11.2464 18.1302 12.0687Z" fill="white"/>
<path d="M24.1203 10.2453V19.5293C25.0758 19.1599 25.9088 18.5282 26.4845 17.694C27.0603 16.8597 27.3788 15.8824 27.3788 14.8813C27.3788 13.8802 27.0725 12.903 26.4845 12.0687C25.8965 11.2464 25.0758 10.6028 24.1203 10.2453Z" fill="white"/>
<path d="M26.3866 6.32422H22.2828C17.4563 6.32422 13.4751 9.86384 13.4751 14.9766C13.4751 19.6604 17.4563 23.4979 22.2828 23.4741H26.3866C31.1641 23.4979 35.5251 19.6485 35.5251 14.9766C35.5251 9.86384 31.1641 6.32422 26.3866 6.32422ZM22.3073 22.7352C17.8973 22.7352 14.3203 19.2194 14.3081 14.8813C14.3081 10.5432 17.8851 7.02738 22.3073 7.02738C26.7296 7.02738 30.3066 10.5432 30.3066 14.8813C30.2943 19.2194 26.7173 22.7352 22.3073 22.7352Z" fill="white"/>
</g>
<path d="M2.45 1.19922H46.55V-0.800781H2.45V1.19922ZM48 2.64922V27.1492H50V2.64922H48ZM46.55 28.5992H2.45V30.5992H46.55V28.5992ZM1 27.1492V2.64922H-1V27.1492H1ZM2.45 28.5992C1.64919 28.5992 1 27.95 1 27.1492H-1C-1 29.0546 0.544619 30.5992 2.45 30.5992V28.5992ZM48 27.1492C48 27.95 47.3508 28.5992 46.55 28.5992V30.5992C48.4554 30.5992 50 29.0546 50 27.1492H48ZM46.55 1.19922C47.3508 1.19922 48 1.84841 48 2.64922H50C50 0.743836 48.4554 -0.800781 46.55 -0.800781V1.19922ZM2.45 -0.800781C0.544618 -0.800781 -1 0.743836 -1 2.64922H1C1 1.84841 1.64919 1.19922 2.45 1.19922V-0.800781Z" fill="white" fill-opacity="0.1"/>
</svg>
