<svg width="49" height="30" viewBox="0 0 49 30" fill="none" xmlns="http://www.w3.org/2000/svg">
<path opacity="0.8" d="M30.2486 10.6816C30.2327 10.7834 30.2146 10.8874 30.1941 10.9942C29.491 14.6036 27.086 15.8505 24.0142 15.8505H22.4502C22.0746 15.8505 21.758 16.1233 21.6995 16.4938L20.8987 21.5723L20.6719 23.0118C20.6338 23.2551 20.8215 23.4744 21.0668 23.4744H23.8409C24.1694 23.4744 24.4484 23.2358 24.5 22.9118L24.5274 22.7708L25.0497 19.4564L25.0833 19.2746C25.1343 18.9496 25.4139 18.7109 25.7424 18.7109H26.1573C28.8448 18.7109 30.9488 17.6197 31.5638 14.4621C31.8206 13.143 31.6876 12.0416 31.0079 11.267C30.8022 11.0334 30.547 10.8396 30.2486 10.6816Z" fill="white"/>
<path opacity="0.6" d="M29.5135 10.3886C29.4062 10.3573 29.2953 10.3289 29.1816 10.3033C29.0674 10.2783 28.9502 10.2561 28.8298 10.2368C28.4081 10.1686 27.9461 10.1362 27.4511 10.1362H23.2728C23.1699 10.1362 23.0723 10.1595 22.9847 10.2016C22.792 10.2942 22.6489 10.4767 22.6142 10.7L21.7252 16.3297L21.6997 16.494C21.7583 16.1234 22.0748 15.8506 22.4504 15.8506H24.0144C27.0862 15.8506 29.4914 14.6032 30.1944 10.9944C30.2153 10.8875 30.233 10.7835 30.2489 10.6818C30.071 10.5875 29.8783 10.5068 29.6709 10.438C29.6198 10.421 29.567 10.4045 29.5135 10.3886Z" fill="white"/>
<path opacity="0.7" d="M22.6136 10.6997C22.6483 10.4763 22.7916 10.2939 22.9842 10.2018C23.0723 10.1598 23.1695 10.1365 23.2723 10.1365H27.4506C27.9457 10.1365 28.4077 10.1689 28.8292 10.2371C28.9498 10.2564 29.067 10.2786 29.1811 10.3036C29.2948 10.3291 29.4056 10.3576 29.5131 10.3888C29.5664 10.4047 29.6192 10.4212 29.6709 10.4377C29.8784 10.5064 30.0711 10.5877 30.2489 10.6815C30.4582 9.34765 30.2473 8.43949 29.5262 7.61713C28.7311 6.71181 27.296 6.32422 25.4598 6.32422H20.1289C19.7538 6.32422 19.434 6.597 19.3759 6.96811L17.1556 21.0425C17.1118 21.3209 17.3266 21.5722 17.6073 21.5722H20.8985L21.7248 16.3294L22.6136 10.6997Z" fill="white"/>
<path d="M2.45 1.19922H46.55V-0.800781H2.45V1.19922ZM48 2.64922V27.1492H50V2.64922H48ZM46.55 28.5992H2.45V30.5992H46.55V28.5992ZM1 27.1492V2.64922H-1V27.1492H1ZM2.45 28.5992C1.64919 28.5992 1 27.95 1 27.1492H-1C-1 29.0546 0.544619 30.5992 2.45 30.5992V28.5992ZM48 27.1492C48 27.95 47.3508 28.5992 46.55 28.5992V30.5992C48.4554 30.5992 50 29.0546 50 27.1492H48ZM46.55 1.19922C47.3508 1.19922 48 1.84841 48 2.64922H50C50 0.743836 48.4554 -0.800781 46.55 -0.800781V1.19922ZM2.45 -0.800781C0.544618 -0.800781 -1 0.743836 -1 2.64922H1C1 1.84841 1.64919 1.19922 2.45 1.19922V-0.800781Z" fill="white" fill-opacity="0.1"/>
</svg>
