<svg width="24" height="25" viewBox="0 0 24 25" fill="none" xmlns="http://www.w3.org/2000/svg">
<path d="M12.0739 0.899414C5.43327 0.899414 0 6.43788 0 13.2071C0 18.284 3.01849 22.5917 7.24436 24.4379C7.24436 23.5148 7.24435 22.5917 7.39527 21.6686C7.69712 20.5917 8.90452 14.8994 8.90452 14.8994C8.90452 14.8994 8.45176 14.1302 8.45176 12.8994C8.45176 11.0533 9.50823 9.66864 10.7156 9.66864C11.7721 9.66864 12.3758 10.4379 12.3758 11.5148C12.3758 12.5917 11.6212 14.284 11.3193 15.8225C11.0175 17.0533 11.923 18.1302 13.2813 18.1302C15.5452 18.1302 17.0544 15.2071 17.0544 11.5148C17.0544 8.74557 15.2433 6.74557 12.0739 6.74557C8.45175 6.74557 6.1879 9.5148 6.1879 12.5917C6.1879 13.6686 6.48975 14.4379 6.94252 15.0533C7.09344 15.361 7.24435 15.361 7.09343 15.6686C7.09343 15.8225 6.94251 16.4379 6.79159 16.5917C6.64066 16.8994 6.48975 17.0533 6.1879 16.8994C4.52773 16.1302 3.7731 14.284 3.7731 12.1302C3.7731 8.59172 6.64066 4.43788 12.3758 4.43788C17.0544 4.43788 20.0729 7.82249 20.0729 11.5148C20.0729 16.284 17.5072 19.9763 13.5832 19.9763C12.2249 19.9763 11.0175 19.2071 10.5647 18.4379C10.5647 18.4379 9.81006 21.2071 9.65914 21.8225C9.35729 22.7456 8.90453 23.6686 8.45176 24.4379C9.50823 24.7456 10.7156 24.8994 11.923 24.8994C18.5637 24.8994 23.9969 19.361 23.9969 12.5917C24.1479 6.43788 18.7146 0.899414 12.0739 0.899414Z" fill="white"/>
</svg>
