<svg width="24" height="20" viewBox="0 0 24 20" fill="none" xmlns="http://www.w3.org/2000/svg">
<path d="M24 2.39941C23.1 2.84941 22.2 2.99941 21.15 3.14941C22.2 2.54941 22.95 1.64941 23.25 0.449414C22.35 1.04941 21.3 1.34941 20.1 1.64941C19.2 0.749414 17.85 0.149414 16.5 0.149414C13.35 0.149414 10.95 3.14941 11.7 6.14941C7.65 5.99941 4.05 4.04941 1.5 1.04941C0.15 3.29941 0.9 6.14941 3 7.64941C2.25 7.64941 1.5 7.34941 0.75 7.04941C0.75 9.29941 2.4 11.3994 4.65 11.9994C3.9 12.1494 3.15 12.2994 2.4 12.1494C3 14.0994 4.8 15.5994 7.05 15.5994C5.25 16.9494 2.55 17.6994 0 17.3994C2.25 18.7494 4.8 19.6494 7.5 19.6494C16.65 19.6494 21.75 11.9994 21.45 4.94941C22.5 4.34941 23.4 3.44941 24 2.39941Z" fill="white"/>
</svg>
