<svg width="49" height="30" viewBox="0 0 49 30" fill="none" xmlns="http://www.w3.org/2000/svg">
<g opacity="0.8">
<path fill-rule="evenodd" clip-rule="evenodd" d="M18.2474 10.2195L15.5932 16.6488L14.5596 11.1624C14.4831 10.6481 14.0492 10.2072 13.4495 10.2072H9.1875V10.5011C10.068 10.6481 10.8846 10.942 11.612 11.3094C11.9055 11.4563 12.1096 11.7625 12.199 12.1176L14.1896 19.7226H16.8437L20.825 10.2195H18.2474Z" fill="white"/>
<path fill-rule="evenodd" clip-rule="evenodd" d="M21.8458 10.2195L19.7914 19.7226H22.2924L24.3596 10.2195H21.8458Z" fill="white"/>
<path fill-rule="evenodd" clip-rule="evenodd" d="M27.588 12.8524C27.6646 12.3381 28.0984 12.0442 28.6216 12.0442C29.4255 11.9707 30.3187 12.1176 31.0461 12.485L31.4927 10.4399C30.7526 10.146 29.9487 9.99902 29.2086 9.99902C26.7841 9.99902 25.0104 11.3094 25.0104 13.1463C25.0104 14.5302 26.2609 15.2649 27.1414 15.7058C28.0984 16.1467 28.4685 16.4406 28.3919 16.8692C28.3919 17.5305 27.6518 17.8244 26.9245 17.8244C26.044 17.8244 25.1508 17.604 24.3469 17.2366L23.9003 19.2817C24.7935 19.6491 25.7505 19.7961 26.631 19.7961C29.349 19.8696 31.0461 18.5592 31.0461 16.5753C31.0589 14.0893 27.588 13.9423 27.588 12.8524Z" fill="white"/>
<path fill-rule="evenodd" clip-rule="evenodd" d="M37.8219 10.2195H35.6909C35.2443 10.2195 34.8104 10.5134 34.6573 10.9542L30.9823 19.7226H33.5599L34.0703 18.3388H37.2349L37.5284 19.7226H39.8125L37.8219 10.2195ZM34.7339 16.3549L36.0609 12.7789L36.801 16.3549H34.7339Z" fill="white"/>
</g>
<path d="M2.45 1.19922H46.55V-0.800781H2.45V1.19922ZM48 2.64922V27.1492H50V2.64922H48ZM46.55 28.5992H2.45V30.5992H46.55V28.5992ZM1 27.1492V2.64922H-1V27.1492H1ZM2.45 28.5992C1.64919 28.5992 1 27.95 1 27.1492H-1C-1 29.0546 0.544619 30.5992 2.45 30.5992V28.5992ZM48 27.1492C48 27.95 47.3508 28.5992 46.55 28.5992V30.5992C48.4554 30.5992 50 29.0546 50 27.1492H48ZM46.55 1.19922C47.3508 1.19922 48 1.84841 48 2.64922H50C50 0.743836 48.4554 -0.800781 46.55 -0.800781V1.19922ZM2.45 -0.800781C0.544618 -0.800781 -1 0.743836 -1 2.64922H1C1 1.84841 1.64919 1.19922 2.45 1.19922V-0.800781Z" fill="white" fill-opacity="0.1"/>
</svg>
